<svg width="69" height="62" viewBox="0 0 69 62" fill="none" xmlns="http://www.w3.org/2000/svg">
<path d="M41.6385 10.6415C44.8289 12.7773 47.066 16.3916 47.4733 20.587C48.7745 21.2361 50.2185 21.6094 51.7496 21.6094C57.339 21.6094 61.8692 16.7723 61.8692 10.8052C61.8692 4.83713 57.339 0 51.7496 0C46.2136 0.00183886 41.7229 4.75254 41.6385 10.6415ZM35.0089 32.7648C40.5983 32.7648 45.1286 27.9268 45.1286 21.9597C45.1286 15.9926 40.5975 11.1555 35.0089 11.1555C29.4204 11.1555 24.8875 15.9935 24.8875 21.9606C24.8875 27.9277 29.4204 32.7648 35.0089 32.7648ZM39.3015 33.5013H30.7146C23.57 33.5013 17.7576 39.7084 17.7576 47.3369V58.5494L17.7843 58.725L18.5076 58.9668C25.3258 61.2415 31.2493 62 36.1249 62C45.6478 62 51.1675 59.101 51.5076 58.9162L52.1836 58.5512H52.2559V47.3369C52.2585 39.7084 46.4461 33.5013 39.3015 33.5013ZM56.0439 22.3468H47.5233C47.4311 25.9868 45.9759 29.2646 43.6742 31.622C50.0248 33.6383 54.6713 39.9263 54.6713 47.3535V50.8087C63.0842 50.4795 67.9322 47.9336 68.2517 47.7626L68.9277 47.3967H69V36.1805C69 28.5529 63.1876 22.3468 56.0439 22.3468ZM17.2522 21.6112C19.2318 21.6112 21.0737 20.9943 22.634 19.9434C23.13 16.4891 24.8643 13.4706 27.3417 11.4147C27.352 11.2125 27.3701 11.012 27.3701 10.8079C27.3701 4.83989 22.839 0.00275809 17.2522 0.00275809C11.6619 0.00275809 7.1325 4.83989 7.1325 10.8079C7.1325 16.7732 11.6619 21.6112 17.2522 21.6112ZM26.3402 31.622C24.0497 29.2765 22.5996 26.0162 22.4937 22.3983C22.1776 22.3734 21.8651 22.3468 21.543 22.3468H12.957C5.81243 22.3468 0 28.5529 0 36.1805V47.3948L0.0266941 47.5677L0.750019 47.8113C6.21973 49.6346 11.1013 50.4749 15.3414 50.7397V47.3535C15.3431 39.9263 19.9879 33.6401 26.3402 31.622Z" fill="black"/>
</svg>
